<svg width="46" height="40" viewBox="0 0 46 40" fill="none" xmlns="http://www.w3.org/2000/svg">
<path fill-rule="evenodd" clip-rule="evenodd" d="M17.2822 28.1071V21.9906L28.4467 11.2629V11.2626L28.4469 11.2628L28.4472 11.2625V11.2631L39.6118 21.9908V28.1073L28.4469 17.3793L17.2822 28.1071Z" fill="white"/>
<path fill-rule="evenodd" clip-rule="evenodd" d="M22.913 0V0.000262737H4.36884V25.0003C4.36884 31.0861 9.3024 36.0197 15.3883 36.0197C21.4741 36.0197 26.4077 31.0861 26.4077 25.0003V16.0195H30.7767V24.6117C30.7767 33.1104 23.8871 40 15.3883 40C6.8896 40 0 33.1104 0 24.6117V0H22.913Z" fill="white"/>
<path fill-rule="evenodd" clip-rule="evenodd" d="M27.7674 11.8929V18.0094L16.6024 28.7375L16.6024 22.621L27.7674 11.8929ZM5.43705 11.8927V18.0092L16.6021 28.7374V22.6209L5.43705 11.8927Z" fill="white"/>
<path fill-rule="evenodd" clip-rule="evenodd" d="M40.6791 40H45.0481V15.3883C45.0481 6.8896 38.1585 0 29.6597 0C21.161 0 14.2714 6.8896 14.2714 15.3883V23.9807H18.6403V15C18.6403 8.91414 23.5738 3.98058 29.6597 3.98058C35.7455 3.98058 40.6791 8.91414 40.6791 15V40Z" fill="white"/>
</svg>
